# xmcd
#
# Track frame offsets:
#	150
#	20769
#	35404
#	48008
#	67323
#	75576
#	87963
#	98616
#	113619
#	132673
#	149855
#	165740
#
# Disc length: 2485 seconds
# Revision: 0
# Processed by: cddbd v1.5.2PL0 Copyright (c) Steve Scherf et al.
# Submitted via: dBpowerAMP V12.0
#
DISCID=a509b30c
DTITLE=Jazzy Jeff Baldori With Bob Gardner - The Blues CD
DYEAR=2013
DGENRE=Blues
TTITLE0=Too Late To Cry
TTITLE1=Grits And Grocery
TTITLE2=She Moves Me
TTITLE3=How Do You See
TTITLE4=Back Stroke
TTITLE5=Mean Mistreating Mamma
TTITLE6=Sunny Land Train
TTITLE7=Every Night Every Day
TTITLE8=That Same Thing
TTITLE9=Bring It On Home
TTITLE10=Stagolee
TTITLE11=Stacko-Lee "The Continuing Legend"
EXTD=
EXTT0=
EXTT1=
EXTT2=
EXTT3=
EXTT4=
EXTT5=
EXTT6=
EXTT7=
EXTT8=
EXTT9=
EXTT10=
EXTT11=
PLAYORDER=
